<svg version="1.1" xmlns="http://www.w3.org/2000/svg" viewBox="0 0 460.4879354519118 310.53498528003695" width="920.9758709038236" height="621.0699705600739">
  <!-- svg-source:excalidraw -->
  
  <defs>
    <style class="style-fonts">
      
    </style>
    
  </defs>
  <rect x="0" y="0" width="460.4879354519118" height="310.53498528003695" fill="#ffffff"></rect><g stroke-linecap="round"><g transform="translate(54.75026456763038 10.881639812141657) rotate(0 2.513671875 144.544921875)"><path d="M-0.22 -0.88 C0.56 47.56, 3.45 241.25, 4.19 289.65 M-1.79 1.27 C-0.59 49.44, 5.05 240.13, 6.47 287.83" stroke="#1e1e1e" stroke-width="2" fill="none"></path></g></g><mask></mask><g stroke-linecap="round"><g transform="translate(10.406514567630381 264.15898356214166) rotate(0 219.712890625 -2.158203125)"><path d="M0.69 -0.37 C74.01 -1.07, 366.8 -4.02, 440.08 -4.74 M-0.41 -1.6 C72.8 -2.1, 366.06 -3.1, 439.48 -3.42" stroke="#1e1e1e" stroke-width="2" fill="none"></path></g></g><mask></mask><g stroke-linecap="round"><g transform="translate(58.82838956763038 220.44804606214166) rotate(0 -12.8515625 21.228515625)"><path d="M-0.8 0.08 C-5.17 7.2, -22.67 35.56, -26.89 42.7 M0.98 -0.92 C-2.98 5.81, -20.12 33.75, -24.8 40.7" stroke="#1e1e1e" stroke-width="2" fill="none"></path></g></g><mask></mask><g stroke-linecap="round"><g transform="translate(61.01979581763038 226.24882731214166) rotate(0 14.619140625 18.283203125)"><path d="M-0.62 0.86 C4.37 6.87, 24.36 31.11, 29.53 37.09 M1.25 0.26 C6.15 6.44, 23.9 28.92, 28.74 35.24" stroke="#1e1e1e" stroke-width="2" fill="none"></path></g></g><mask></mask><g stroke-linecap="round"><g transform="translate(34.90651456763038 29.869921062141657) rotate(0 202.06640625 -0.943359375)"><path d="M-0.56 0.92 C66.67 0.62, 336.1 -1.12, 403.56 -1.4 M1.35 0.35 C68.36 -0.33, 335.28 -2.78, 402.31 -3.26" stroke="#1e1e1e" stroke-width="2" fill="none"></path></g></g><mask></mask><g stroke-linecap="round"><g transform="translate(339.7658895676304 27.221483562141657) rotate(0 0.345703125 25.81640625)"><path d="M0.18 1.17 C0.16 9.81, 1.05 42.91, 1.05 51.49 M-1.19 0.73 C-1.43 9.61, 0.24 44.61, 0.29 52.96" stroke="#1e1e1e" stroke-width="2" fill="none"></path></g></g><mask></mask><g stroke-linecap="round" transform="translate(322.6291708176304 81.50273356214166) rotate(0 19.482421875 19.447265625)"><path d="M17.51 -0.31 C21.33 -0.88, 26.22 1.22, 29.74 3.65 C33.26 6.08, 37.35 10.31, 38.63 14.3 C39.91 18.28, 39.23 23.87, 37.43 27.55 C35.63 31.24, 31.62 34.61, 27.84 36.42 C24.06 38.23, 18.86 39.28, 14.77 38.41 C10.69 37.55, 5.81 34.54, 3.33 31.23 C0.85 27.93, -0.5 22.78, -0.13 18.61 C0.24 14.43, 2.54 9.25, 5.56 6.2 C8.57 3.16, 15.92 1.33, 17.96 0.35 C20.01 -0.63, 17.81 0.02, 17.81 0.32 M15.06 0.82 C18.92 -0.16, 24.84 1.23, 28.64 3.14 C32.44 5.05, 36.4 8.38, 37.88 12.26 C39.35 16.14, 38.89 22.43, 37.5 26.41 C36.1 30.39, 32.99 34.01, 29.5 36.15 C26 38.28, 20.55 39.87, 16.51 39.24 C12.47 38.61, 8.02 35.72, 5.27 32.37 C2.52 29.02, 0.27 23.35, 0.02 19.15 C-0.23 14.94, 1.27 10.23, 3.78 7.14 C6.3 4.06, 13.2 1.73, 15.1 0.63 C17 -0.46, 14.93 0.2, 15.2 0.57" stroke="#1e1e1e" stroke-width="2" fill="none"></path></g><g stroke-linecap="round"><g transform="translate(343.4885458176304 119.54179606214166) rotate(0 0.27734375 22.576171875)"><path d="M0.07 -0.09 C0.23 7.52, 0.8 37.95, 0.85 45.46 M-0.56 -0.61 C-0.44 6.86, 0.49 36.97, 0.57 44.66" stroke="#1e1e1e" stroke-width="2" fill="none"></path></g></g><mask></mask><g stroke-linecap="round"><g transform="translate(341.9299520676304 125.84257731214166) rotate(0 -14.498046875 19.876953125)"><path d="M-1.19 0.38 C-6.23 6.7, -24.9 32.39, -29.53 39.08 M0.39 -0.47 C-4.92 6.51, -25.74 33.75, -30.76 40.26" stroke="#1e1e1e" stroke-width="2" fill="none"></path></g></g><mask></mask></svg>