<svg version="1.1" xmlns="http://www.w3.org/2000/svg" viewBox="0 0 460.4879354519118 310.53498528003695" width="920.9758709038236" height="621.0699705600739">
  <!-- svg-source:excalidraw -->
  
  <defs>
    <style class="style-fonts">
      
    </style>
    
  </defs>
  <rect x="0" y="0" width="460.4879354519118" height="310.53498528003695" fill="#ffffff"></rect><g stroke-linecap="round"><g transform="translate(54.75026456763038 10.881639812141657) rotate(0 2.513671875 144.544921875)"><path d="M-0.22 -0.88 C0.56 47.56, 3.45 241.25, 4.19 289.65 M-1.79 1.27 C-0.59 49.44, 5.05 240.13, 6.47 287.83" stroke="#1e1e1e" stroke-width="2" fill="none"></path></g></g><mask></mask><g stroke-linecap="round"><g transform="translate(10.406514567630381 264.15898356214166) rotate(0 219.712890625 -2.158203125)"><path d="M0.69 -0.37 C74.01 -1.07, 366.8 -4.02, 440.08 -4.74 M-0.41 -1.6 C72.8 -2.1, 366.06 -3.1, 439.48 -3.42" stroke="#1e1e1e" stroke-width="2" fill="none"></path></g></g><mask></mask><g stroke-linecap="round"><g transform="translate(58.82838956763038 220.44804606214166) rotate(0 -12.8515625 21.228515625)"><path d="M-0.8 0.08 C-5.17 7.2, -22.67 35.56, -26.89 42.7 M0.98 -0.92 C-2.98 5.81, -20.12 33.75, -24.8 40.7" stroke="#1e1e1e" stroke-width="2" fill="none"></path></g></g><mask></mask><g stroke-linecap="round"><g transform="translate(61.01979581763038 226.24882731214166) rotate(0 14.619140625 18.283203125)"><path d="M-0.62 0.86 C4.37 6.87, 24.36 31.11, 29.53 37.09 M1.25 0.26 C6.15 6.44, 23.9 28.92, 28.74 35.24" stroke="#1e1e1e" stroke-width="2" fill="none"></path></g></g><mask></mask><g stroke-linecap="round"><g transform="translate(34.90651456763038 29.869921062141657) rotate(0 202.06640625 -0.943359375)"><path d="M-0.56 0.92 C66.67 0.62, 336.1 -1.12, 403.56 -1.4 M1.35 0.35 C68.36 -0.33, 335.28 -2.78, 402.31 -3.26" stroke="#1e1e1e" stroke-width="2" fill="none"></path></g></g><mask></mask></svg>